<svg xmlns="http://www.w3.org/2000/svg" width="274.162" height="86.697" viewBox="0 0 274.162 86.697"><g transform="translate(-142.07 -344.161)"><g transform="translate(267.502 391.562)"><path d="M292.07,418.054l.8-1.58a9.525,9.525,0,0,0,6.4,2.356c3.631,0,5.21-1.524,5.21-3.435,0-5.321-11.944-2.05-11.944-9.228,0-2.854,2.218-5.32,7.15-5.32a10.949,10.949,0,0,1,6.014,1.718l-.693,1.635a9.985,9.985,0,0,0-5.321-1.608c-3.547,0-5.127,1.58-5.127,3.52,0,5.321,11.944,2.106,11.944,9.172,0,2.855-2.272,5.294-7.232,5.294C296.365,420.576,293.511,419.55,292.07,418.054Z" transform="translate(-292.07 -400.846)" fill="#67b7a5"/><path d="M320.346,411.326l-3.962,4.017v5.1h-2.05v-19.4h2.05v11.723l11.389-11.723h2.356l-8.4,8.786,8.979,10.612h-2.438Z" transform="translate(-295.717 -400.878)" fill="#67b7a5"/><path d="M337.548,401.043h2.05v19.4h-2.05Z" transform="translate(-299.519 -400.878)" fill="#67b7a5"/><path d="M363.061,401.043v19.4h-1.69L348.9,404.7v15.739h-2.05v-19.4h1.69l12.5,15.742V401.043Z" transform="translate(-301.042 -400.878)" fill="#67b7a5"/><path d="M378.487,410.711c0-5.68,4.324-9.865,10.171-9.865a9.39,9.39,0,0,1,7.094,2.826l-1.3,1.3a7.68,7.68,0,0,0-5.736-2.3,8.038,8.038,0,1,0,0,16.072,7.607,7.607,0,0,0,5.736-2.327l1.3,1.3a9.435,9.435,0,0,1-7.122,2.855C382.811,420.576,378.487,416.392,378.487,410.711Z" transform="translate(-306.224 -400.846)" fill="#67b7a5"/><path d="M416.211,415.259H405.4l-2.328,5.182h-2.134l8.867-19.4h2.024l8.867,19.4h-2.162Zm-.748-1.663-4.655-10.419L406.152,413.6Z" transform="translate(-309.902 -400.878)" fill="#67b7a5"/><path d="M441.4,420.441l-4.435-6.235a13.818,13.818,0,0,1-1.551.084H430.2v6.151h-2.05v-19.4h7.26c4.933,0,7.926,2.494,7.926,6.652a6.014,6.014,0,0,1-4.434,6.1l4.738,6.65Zm-.111-12.746c0-3.1-2.051-4.878-5.93-4.878H430.2v9.727h5.154C439.235,412.543,441.286,410.743,441.286,407.7Z" transform="translate(-314.358 -400.878)" fill="#67b7a5"/><path d="M465.439,418.669v1.773H451.722v-19.4h13.3v1.774h-11.25v6.9H463.8v1.747H453.773v7.2Z" transform="translate(-318.219 -400.878)" fill="#67b7a5"/></g><g transform="translate(217.91 344.161)"><path d="M234.477,347.773a3.059,3.059,0,0,0-1.1-1.406q-.613-.356-.614-.255h8.127q0-.1-.613.255a3.19,3.19,0,0,0-1.125,1.406,7.3,7.3,0,0,0-.511,3.093v28.368h8.383a7.87,7.87,0,0,0,3.961-.946,5.611,5.611,0,0,0,2.377-2.428l-.92,5.418H232.764q0,.154.614-.23a3.238,3.238,0,0,0,1.1-1.534,8.964,8.964,0,0,0,.485-3.347v-25.3A7.652,7.652,0,0,0,234.477,347.773Z" transform="translate(-232.764 -344.477)" fill="#67b7a5"/><path d="M269.963,367.316l-3.272,8.127a8.728,8.728,0,0,0-.766,3.117,2.464,2.464,0,0,0,1.533,2.4h-7.309q.509,0,1.482-1.022a14.7,14.7,0,0,0,2.249-4.039l13.34-31.741,13.239,31.895a11.605,11.605,0,0,0,2.172,3.782,3.755,3.755,0,0,0,1.661,1.125h-8.485a2,2,0,0,0,1.279-1.891,8.925,8.925,0,0,0-.818-3.067l-3.578-8.689Zm11.909-2.1L276.3,351.572l-5.469,13.647Z" transform="translate(-237.249 -344.161)" fill="#67b7a5"/><path d="M326.861,360.91a9.711,9.711,0,0,1-4.013,3.655,13.334,13.334,0,0,1-6.134,1.329,25.015,25.015,0,0,1-4.6-.46v11.143a7.141,7.141,0,0,0,.511,3.042,3.181,3.181,0,0,0,1.125,1.406q.613.357.613.255h-8.127q0,.1.614-.255a3.048,3.048,0,0,0,1.1-1.381,7.454,7.454,0,0,0,.485-3.067V350.968a7.842,7.842,0,0,0-.485-3.117,3.235,3.235,0,0,0-1.1-1.457c-.409-.256-.614-.349-.614-.281h10.019a22.848,22.848,0,0,1,4.294.332,11.052,11.052,0,0,1,2.964,1,8.192,8.192,0,0,1,3.526,3.4,9.73,9.73,0,0,1,1.227,4.779A10.025,10.025,0,0,1,326.861,360.91Zm-4.78-10.5a8.086,8.086,0,0,0-5.98-2.249h-3.987V363.44a25.036,25.036,0,0,0,4.6.409,7.054,7.054,0,0,0,7.616-7.564A7.953,7.953,0,0,0,322.081,350.406Z" transform="translate(-244.798 -344.477)" fill="#67b7a5"/><path d="M360.357,360.91a9.714,9.714,0,0,1-4.012,3.655,13.337,13.337,0,0,1-6.134,1.329,25.017,25.017,0,0,1-4.6-.46v11.143a7.155,7.155,0,0,0,.511,3.042,3.187,3.187,0,0,0,1.125,1.406q.613.357.614.255h-8.127q0,.1.613-.255a3.042,3.042,0,0,0,1.1-1.381,7.438,7.438,0,0,0,.486-3.067V350.968a7.826,7.826,0,0,0-.486-3.117,3.228,3.228,0,0,0-1.1-1.457c-.409-.256-.613-.349-.613-.281h10.019a22.838,22.838,0,0,1,4.293.332,11.058,11.058,0,0,1,2.965,1,8.192,8.192,0,0,1,3.526,3.4,9.739,9.739,0,0,1,1.227,4.779A10.025,10.025,0,0,1,360.357,360.91Zm-4.78-10.5a8.086,8.086,0,0,0-5.98-2.249h-3.987V363.44a25.044,25.044,0,0,0,4.6.409,7.459,7.459,0,0,0,5.6-2.07,7.535,7.535,0,0,0,2.02-5.495A7.95,7.95,0,0,0,355.578,350.406Z" transform="translate(-250.284 -344.477)" fill="#67b7a5"/><path d="M373.229,381.275q0,.154.614-.23a3.238,3.238,0,0,0,1.1-1.534,8.965,8.965,0,0,0,.485-3.347v-25.1a8.213,8.213,0,0,0-.485-3.2,3.44,3.44,0,0,0-1.1-1.508c-.41-.272-.614-.358-.614-.255h18.5v5.111q-.919-3.066-5.52-3.066h-7.1v14.516H387.9a4.111,4.111,0,0,0,1.738-.332,3.8,3.8,0,0,0,1.073-.69,2.865,2.865,0,0,0,.409-.46v4.958a2.9,2.9,0,0,0-.409-.46,3.479,3.479,0,0,0-1.048-.665,4.226,4.226,0,0,0-1.713-.307h-8.842V379.23h7.973a7.873,7.873,0,0,0,3.962-.946,5.621,5.621,0,0,0,2.376-2.428l-.92,5.418Z" transform="translate(-255.77 -344.473)" fill="#67b7a5"/><path d="M419.867,362.491a7.208,7.208,0,0,0,2.632-2.862,8.087,8.087,0,0,0,.894-3.706,8.6,8.6,0,0,0-.843-3.757,7.01,7.01,0,0,0-2.581-2.888,7.657,7.657,0,0,0-4.242-1.124h-4.345v28.419a7.309,7.309,0,0,0,.511,3.093,2.984,2.984,0,0,0,1.125,1.38c.409.222.613.3.613.23H405.5q0,.1.613-.255a3.047,3.047,0,0,0,1.1-1.381,7.451,7.451,0,0,0,.486-3.067V351.015a8.211,8.211,0,0,0-.486-3.2,3.237,3.237,0,0,0-1.1-1.483q-.613-.383-.613-.229h10.12a14.541,14.541,0,0,1,6.568,1.3,8.445,8.445,0,0,1,3.731,3.373,9.156,9.156,0,0,1,1.151,4.523,8.979,8.979,0,0,1-.972,4.013,10.1,10.1,0,0,1-2.785,3.424,10.441,10.441,0,0,1-4.217,2.019l-.818.153,9,11.449q1.789,1.993,2.964,3.066a17.1,17.1,0,0,0,1.713,1.432q.537.359.639.409h-5.981l-13.9-17.685h3.067A7.492,7.492,0,0,0,419.867,362.491Z" transform="translate(-261.056 -344.473)" fill="#67b7a5"/><path d="M441.392,349.03a5.307,5.307,0,0,0-2.147,2.2l.716-5.111h24.228l.716,5.111a5.32,5.32,0,0,0-2.147-2.2,7.283,7.283,0,0,0-3.731-.869h-5.112v28.368a7.479,7.479,0,0,0,.512,3.118,3.169,3.169,0,0,0,1.124,1.432c.41.237.614.307.614.2h-8.127c0,.1.2.033.613-.2a3.045,3.045,0,0,0,1.1-1.406,7.8,7.8,0,0,0,.486-3.144V348.162h-5.111A7.279,7.279,0,0,0,441.392,349.03Z" transform="translate(-266.582 -344.481)" fill="#67b7a5"/></g><path d="M214.4,403.739a54.112,54.112,0,0,0-26.618,11.247c-6.294,5.134-12.521,10.139-18.98,15.191-4.182,3.271-17.026,10.073-26.728,8.666,26.109,8.056,49.572-17.6,56.679-22.708,6.1-4.378,12.828-8.107,25.355-10.244,5.481-.936,20.7-2.133,36.708-2.328A215.61,215.61,0,0,0,214.4,403.739Z" transform="translate(0 -9.538)" fill="#67b7a5"/><path d="M264.577,406.646s-22.222,2.322-34.845,7.135c-14.695,5.6-24.826,20.613-41.767,21.875,10.369-6.413,17.161-13.246,25.181-18.7C225.024,408.872,244.055,406.687,264.577,406.646Z" transform="translate(-7.517 -10.234)" fill="#67b7a5"/><path d="M234.369,417.636c-8.765,4.335-11.329,6.992-20.177,13.537,9.119-.2,12.064-3.17,20.384-9.049,9.494-6.708,21.754-8.948,32.146-11.936C266.722,410.188,244.619,412.567,234.369,417.636Z" transform="translate(-11.812 -10.814)" fill="#67b7a5"/></g></svg>