<?xml version="1.0" encoding="UTF-8" standalone="no"?><!DOCTYPE svg PUBLIC "-//W3C//DTD SVG 1.1//EN" "http://www.w3.org/Graphics/SVG/1.1/DTD/svg11.dtd"><svg width="100%" height="100%" viewBox="0 0 76 53" version="1.1" xmlns="http://www.w3.org/2000/svg" xmlns:xlink="http://www.w3.org/1999/xlink" xml:space="preserve" xmlns:serif="http://www.serif.com/" style="fill-rule:evenodd;clip-rule:evenodd;stroke-linejoin:round;stroke-miterlimit:2;"><g><rect x="6" y="6" width="64" height="41" style="fill:#67b7a5;fill-opacity:0.8;"/><path d="M45.996,30.851c0.002,-0.22 -0.077,-0.434 -0.221,-0.6l-7.531,-9.361c-0.185,-0.223 -0.46,-0.352 -0.75,-0.352c-0.29,0 -0.565,0.129 -0.75,0.352l-7.489,9.321c-0.16,0.198 -0.233,0.454 -0.2,0.707c0.025,0.256 0.153,0.491 0.354,0.651c0.196,0.166 0.452,0.243 0.707,0.21c0.252,-0.022 0.485,-0.149 0.64,-0.349l6.737,-8.4l6.78,8.44c0.155,0.202 0.388,0.33 0.641,0.353c0.253,0.033 0.509,-0.04 0.707,-0.2c0.239,-0.184 0.378,-0.47 0.375,-0.772Z" style="fill:#fff;fill-rule:nonzero;"/></g></svg>